<svg xmlns="http://www.w3.org/2000/svg" viewBox="0 0 1200 640" font-family="'Geist Mono', ui-monospace, 'SF Mono', Menlo, monospace" role="img"
  aria-label="Architecture: GitHub Actions authenticates to Azure with OIDC, Terraform provisions a Static Web App and Table Storage, visitors reach the site over HTTPS and a managed Function increments the visitor counter.">
  <defs>
    <marker id="arr" viewBox="0 0 10 10" refX="9" refY="5" markerWidth="7" markerHeight="7" orient="auto-start-reverse">
      <path d="M0 0 L10 5 L0 10 z" fill="#4ade80" fill-opacity="0.9"/>
    </marker>
  </defs>

  <rect width="1200" height="640" rx="12" fill="#0a0e14"/>
  <text x="70" y="48" font-size="13" fill="#6e7681">$ <tspan fill="#4ade80">cat</tspan> architecture.svg <tspan fill="#6e7681">— muyideen.dev</tspan></text>

  <!-- GitHub repo -->
  <rect x="70" y="90" width="250" height="100" rx="8" fill="#11161f" stroke="rgba(255,255,255,0.12)"/>
  <g transform="translate(94,116) scale(1.15)"><path d="M12 .297c-6.63 0-12 5.373-12 12 0 5.303 3.438 9.8 8.205 11.385.6.113.82-.258.82-.577 0-.285-.01-1.04-.015-2.04-3.338.724-4.042-1.61-4.042-1.61C4.422 18.07 3.633 17.7 3.633 17.7c-1.087-.744.084-.729.084-.729 1.205.084 1.838 1.236 1.838 1.236 1.07 1.835 2.809 1.305 3.495.998.108-.776.417-1.305.76-1.605-2.665-.3-5.466-1.332-5.466-5.93 0-1.31.465-2.38 1.235-3.22-.135-.303-.54-1.523.105-3.176 0 0 1.005-.322 3.3 1.23.96-.267 1.98-.399 3-.405 1.02.006 2.04.138 3 .405 2.28-1.552 3.285-1.23 3.285-1.23.645 1.653.24 2.873.12 3.176.765.84 1.23 1.91 1.23 3.22 0 4.61-2.805 5.625-5.475 5.92.42.36.81 1.096.81 2.22 0 1.606-.015 2.896-.015 3.286 0 .315.21.69.825.57C20.565 22.092 24 17.592 24 12.297c0-6.627-5.373-12-12-12" fill="#c9d1d9"/></g>
  <text x="134" y="130" font-size="15" font-weight="600" fill="#ffffff">GitHub Repo</text>
  <text x="134" y="152" font-size="11.5" fill="#6e7681">MMuyideen/portfolio</text>
  <text x="94" y="174" font-size="11.5" fill="#6e7681">src · api/ · infra/ (Terraform)</text>

  <!-- GitHub Actions -->
  <rect x="70" y="280" width="250" height="130" rx="8" fill="#11161f" stroke="rgba(255,255,255,0.12)"/>
  <g transform="translate(94,306) scale(1.15)"><path d="M10.984 13.836a.5.5 0 0 1-.353-.146l-.745-.743a.5.5 0 1 1 .706-.708l.392.391 1.181-1.18a.5.5 0 0 1 .708.707l-1.535 1.533a.504.504 0 0 1-.354.146zm9.353-.147l1.534-1.532a.5.5 0 0 0-.707-.707l-1.181 1.18-.392-.391a.5.5 0 1 0-.706.708l.746.743a.497.497 0 0 0 .706-.001zM4.527 7.452l2.557-1.585A1 1 0 0 0 7.09 4.17L4.533 2.56A1 1 0 0 0 3 3.406v3.196a1.001 1.001 0 0 0 1.527.85zm2.03-2.436L4 6.602V3.406l2.557 1.61zM24 12.5c0 1.93-1.57 3.5-3.5 3.5a3.503 3.503 0 0 1-3.46-3h-2.08a3.503 3.503 0 0 1-3.46 3 3.502 3.502 0 0 1-3.46-3h-.558c-.972 0-1.85-.399-2.482-1.042V17c0 1.654 1.346 3 3 3h.04c.244-1.693 1.7-3 3.46-3 1.93 0 3.5 1.57 3.5 3.5S13.43 24 11.5 24a3.502 3.502 0 0 1-3.46-3H8c-2.206 0-4-1.794-4-4V9.899A5.008 5.008 0 0 1 0 5c0-2.757 2.243-5 5-5s5 2.243 5 5a5.005 5.005 0 0 1-4.952 4.998A2.482 2.482 0 0 0 7.482 12h.558c.244-1.693 1.7-3 3.46-3a3.502 3.502 0 0 1 3.46 3h2.08a3.503 3.503 0 0 1 3.46-3c1.93 0 3.5 1.57 3.5 3.5zm-15 8c0 1.378 1.122 2.5 2.5 2.5s2.5-1.122 2.5-2.5-1.122-2.5-2.5-2.5S9 19.122 9 20.5zM5 9c2.206 0 4-1.794 4-4S7.206 1 5 1 1 2.794 1 5s1.794 4 4 4zm9 3.5c0-1.378-1.122-2.5-2.5-2.5S9 11.122 9 12.5s1.122 2.5 2.5 2.5 2.5-1.122 2.5-2.5zm9 0c0-1.378-1.122-2.5-2.5-2.5S18 11.122 18 12.5s1.122 2.5 2.5 2.5 2.5-1.122 2.5-2.5zm-13 8a.5.5 0 1 0 1 0 .5.5 0 0 0-1 0zm2 0a.5.5 0 1 0 1 0 .5.5 0 0 0-1 0zm12 0c0 1.93-1.57 3.5-3.5 3.5a3.503 3.503 0 0 1-3.46-3.002c-.007.001-.013.005-.021.005l-.506.017h-.017a.5.5 0 0 1-.016-.999l.506-.017c.018-.002.035.006.052.007A3.503 3.503 0 0 1 20.5 17c1.93 0 3.5 1.57 3.5 3.5zm-1 0c0-1.378-1.122-2.5-2.5-2.5S18 19.122 18 20.5s1.122 2.5 2.5 2.5 2.5-1.122 2.5-2.5z" fill="#4ade80"/></g>
  <text x="134" y="320" font-size="15" font-weight="600" fill="#ffffff">GitHub Actions</text>
  <text x="134" y="342" font-size="11.5" fill="#6e7681">CI + deploy on main</text>
  <rect x="94" y="362" width="202" height="26" rx="5" fill="#161c26" stroke="rgba(255,255,255,0.08)"/>
   <text x="195" y="379" font-size="11.5" fill="#c9d1d9" text-anchor="middle">OIDC · id-token, no secrets</text>

  <!-- Visitor -->
  <rect x="70" y="470" width="250" height="110" rx="8" fill="#11161f" stroke="rgba(255,255,255,0.12)"/>
  <rect x="94" y="496" width="34" height="26" rx="4" fill="none" stroke="#4ade80" stroke-width="1.6"/>
  <circle cx="101" cy="503" r="1.6" fill="#4ade80"/><circle cx="107" cy="503" r="1.6" fill="#4ade80"/><circle cx="113" cy="503" r="1.6" fill="#4ade80"/>
  <line x1="94" y1="507" x2="128" y2="507" stroke="#4ade80" stroke-width="1.2" stroke-opacity="0.6"/>
  <text x="144" y="514" font-size="15" font-weight="600" fill="#ffffff">Visitor</text>
  <text x="94" y="552" font-size="11.5" fill="#6e7681">browser · anywhere on the edge</text>

  <!-- Terraform -->
  <rect x="430" y="280" width="220" height="130" rx="8" fill="#11161f" stroke="rgba(255,255,255,0.12)"/>
  <g transform="translate(454,306) scale(1.15)"><path d="M1.44 0v7.575l6.561 3.79V3.787zm21.12 4.227l-6.561 3.791v7.574l6.56-3.787zM8.72 4.23v7.575l6.561 3.787V8.018zm0 8.405v7.575L15.28 24v-7.578z" fill="#a78bfa"/></g>
  <text x="494" y="320" font-size="15" font-weight="600" fill="#ffffff">Terraform</text>
  <text x="494" y="342" font-size="11.5" fill="#6e7681">azurerm 4.x</text>
  <text x="454" y="372" font-size="11.5" fill="#6e7681">remote state · plan/apply</text>

  <!-- Azure boundary -->
  <rect x="740" y="70" width="400" height="510" rx="10" fill="none" stroke="#6e7681" stroke-opacity="0.55" stroke-dasharray="6 6"/>
  <path d="M778 96 a8 8 0 0 1 3 -15 a11 11 0 0 1 21 -3 a9 9 0 0 1 1 18 z" fill="none" stroke="#6e7681" stroke-width="1.5"/>
  <text x="812" y="94" font-size="12.5" fill="#6e7681">Azure — mmportfolio-rg</text>

  <!-- Storage Account -->
  <rect x="790" y="130" width="300" height="130" rx="8" fill="#11161f" stroke="rgba(255,255,255,0.12)"/>
  <g stroke="#4ade80" stroke-width="1.5" fill="none">
    <rect x="814" y="156" width="30" height="24" rx="3"/>
    <line x1="814" y1="164" x2="844" y2="164"/><line x1="814" y1="172" x2="844" y2="172"/>
    <line x1="824" y1="156" x2="824" y2="180"/><line x1="834" y1="156" x2="834" y2="180"/>
  </g>
  <text x="858" y="166" font-size="15" font-weight="600" fill="#ffffff">Storage Account</text>
  <text x="858" y="186" font-size="11.5" fill="#6e7681">Table: visitors · TLS 1.2</text>
  <text x="814" y="236" font-size="11.5" fill="#6e7681">single entity holds the count</text>

  <!-- Static Web App -->
  <rect x="790" y="350" width="300" height="180" rx="8" fill="#11161f" stroke="rgba(255,255,255,0.12)"/>
  <text x="814" y="384" font-size="19" font-weight="700" fill="#4ade80">&lt;/&gt;</text>
  <text x="858" y="382" font-size="15" font-weight="600" fill="#ffffff">Static Web App</text>
  <text x="858" y="402" font-size="11.5" fill="#6e7681">global edge · Free tier</text>
  <rect x="814" y="424" width="252" height="26" rx="5" fill="#161c26" stroke="rgba(255,255,255,0.08)"/>
   <text x="940" y="441" font-size="11.5" fill="#c9d1d9" text-anchor="middle">React SPA · dist/</text>
  <rect x="814" y="460" width="252" height="26" rx="5" fill="#161c26" stroke="rgba(255,255,255,0.08)"/>
   <text x="940" y="477" font-size="11.5" fill="#c9d1d9" text-anchor="middle">ƒ managed API · /api/visitors</text>

  <!-- Arrows -->
  <polyline points="195,190 195,278" fill="none" stroke="#4ade80" stroke-width="1.6" stroke-opacity="0.75" marker-end="url(#arr)"/>
  <text x="207" y="238" font-size="11" fill="#4ade80" text-anchor="start">push to main</text>

  <polyline points="320,345 428,345" fill="none" stroke="#4ade80" stroke-width="1.6" stroke-opacity="0.75" marker-end="url(#arr)"/>
  <text x="374" y="335" font-size="11" fill="#4ade80" text-anchor="middle">terraform</text>

  <polyline points="650,345 788,345" fill="none" stroke="#4ade80" stroke-width="1.6" stroke-opacity="0.75" marker-end="url(#arr)"/>
  <text x="719" y="335" font-size="11" fill="#4ade80" text-anchor="middle">provision</text>

  <polyline points="320,380 380,380 380,440 788,440" fill="none" stroke="#4ade80" stroke-width="1.6" stroke-opacity="0.75" marker-end="url(#arr)"/>
  <text x="560" y="430" font-size="11" fill="#4ade80" text-anchor="middle">swa deploy · dist/ + api/</text>

  <polyline points="320,525 788,525" fill="none" stroke="#4ade80" stroke-width="1.6" stroke-opacity="0.75" marker-end="url(#arr)"/>
  <text x="554" y="515" font-size="11" fill="#4ade80" text-anchor="middle">HTTPS · muyideen.dev</text>

  <polyline points="940,348 940,262" fill="none" stroke="#4ade80" stroke-width="1.6" stroke-opacity="0.75" marker-end="url(#arr)"/>
  <text x="952" y="308" font-size="11" fill="#4ade80" text-anchor="start">increment · ETag retry</text>
</svg>
